<svg width="64" height="64" viewBox="0 0 64 64" fill="none" xmlns="http://www.w3.org/2000/svg">
<circle cx="32" cy="32" r="32" fill="#80E4CC"/>
<path fill-rule="evenodd" clip-rule="evenodd" d="M34.3999 25C34.3999 26.7 35.7999 28 37.3999 28C38.9999 28 40.3999 26.7 40.3999 25C40.3999 23.3 39.0999 22 37.3999 22C35.6999 22 34.3999 23.3 34.3999 25ZM36.3999 25.1C36.3999 24.5 36.8999 24.1 37.3999 24.1C37.8999 24.1 38.3999 24.5 38.3999 25.1C38.3999 25.7 37.8999 26.1 37.3999 26.1C36.7999 26.1 36.3999 25.6 36.3999 25.1ZM33.3 32.8H39.2C40.8 32.8 42 34.1 42.1 35.7C42.1 36.6 41.7 37.4 41 37.9L36.7 41.1C36 41.6 35.1 41.9 34.2 41.9H25.1C23.4 41.9 22 40.5 22 38.8V35.9C22 34.2 23.4 32.8 25.1 32.8H27.3L30.1 28L30.4 27.7C30.5 27.6 30.7 27.6 30.8 27.6C31.3 27.6 31.8 27.7 32.3 27.8C32.7 28.1 33.1 28.4 33.4 28.8C33.7 29.2 33.8 29.7 33.9 30.2C33.9 30.7 33.9 31.2 33.7 31.7L33.3 32.8ZM24 35.9V38.8C24 39.4 24.5 39.9 25.1 39.9H26.3V34.8H25.1C24.5 34.8 24 35.3 24 35.9ZM35.4 39.4L39.7 36.2C39.9 36.1 40 35.9 40 35.7C40 35.2 39.6 34.9 39.2 34.9H33.3C32.6 34.9 32 34.5 31.6 34C31.2 33.4 31.2 32.7 31.4 32.1L31.9 31V30.5C31.9 30.3 31.8 30.1 31.7 30L31.4 29.7L29 33.8C28.9 34.1 28.6 34.3 28.3 34.5V39.8H34.1C34.6 39.8 35 39.7 35.4 39.4Z" fill="white"/>
</svg>
