
<svg width="64" height="64" viewBox="0 0 64 64" fill="none" xmlns="http://www.w3.org/2000/svg">
<circle cx="32" cy="32" r="32" fill="#A5BEE2"/>
<path d="M40.874 37.25L38.164 32.57C38.7185 31.5515 39.0074 30.4097 39.004 29.25C39.004 27.3935 38.2665 25.613 36.9537 24.3003C35.641 22.9875 33.8605 22.25 32.004 22.25C30.1475 22.25 28.367 22.9875 27.0542 24.3003C25.7415 25.613 25.004 27.3935 25.004 29.25C25.0005 30.4097 25.2894 31.5515 25.844 32.57L23.134 37.25C23.046 37.4023 22.9998 37.5751 23 37.751C23.0002 37.9269 23.0467 38.0996 23.135 38.2517C23.2232 38.4039 23.35 38.53 23.5026 38.6175C23.6552 38.705 23.8281 38.7507 24.004 38.75H26.874L28.334 41.21C28.3832 41.2915 28.4438 41.3656 28.514 41.43C28.6994 41.6087 28.9465 41.709 29.204 41.71H29.344C29.4949 41.6893 29.6392 41.6345 29.7657 41.5495C29.8922 41.4646 29.9977 41.3519 30.074 41.22L32.004 37.9L33.934 41.25C34.0114 41.38 34.1173 41.4908 34.2438 41.5739C34.3702 41.6571 34.5139 41.7104 34.664 41.73H34.804C35.0649 41.7316 35.3161 41.6311 35.504 41.45C35.5712 41.3893 35.6286 41.3184 35.674 41.24L37.134 38.78H40.004C40.1802 38.7807 40.3535 38.7348 40.5062 38.647C40.659 38.5592 40.7859 38.4326 40.874 38.28C40.9674 38.1245 41.0168 37.9464 41.0168 37.765C41.0168 37.5836 40.9674 37.4055 40.874 37.25ZM29.194 38.78L28.304 37.29C28.2163 37.1422 28.0921 37.0194 27.9432 36.9336C27.7943 36.8478 27.6258 36.8018 27.454 36.8H25.724L27.154 34.32C28.1387 35.2689 29.3798 35.9085 30.724 36.16L29.194 38.78ZM32.004 34.25C31.0151 34.25 30.0484 33.9568 29.2261 33.4073C28.4039 32.8579 27.763 32.077 27.3846 31.1634C27.0061 30.2498 26.9071 29.2445 27.1001 28.2745C27.293 27.3046 27.7692 26.4137 28.4684 25.7145C29.1677 25.0152 30.0586 24.539 31.0285 24.3461C31.9984 24.1531 33.0038 24.2522 33.9174 24.6306C34.831 25.009 35.6119 25.6499 36.1613 26.4721C36.7107 27.2944 37.004 28.2611 37.004 29.25C37.004 30.5761 36.4772 31.8479 35.5395 32.7855C34.6018 33.7232 33.3301 34.25 32.004 34.25ZM36.554 36.8C36.3821 36.8018 36.2136 36.8478 36.0648 36.9336C35.9159 37.0194 35.7916 37.1422 35.704 37.29L34.814 38.78L33.294 36.13C34.6335 35.8734 35.8699 35.2343 36.854 34.29L38.284 36.77L36.554 36.8Z" fill="white"/>
<path d="M34.4352 31.3061C34.7701 30.845 34.971 30.3004 35.0157 29.7323C35.0604 29.1642 34.9471 28.5948 34.6884 28.0871C34.4296 27.5793 34.0356 27.153 33.5497 26.8553C33.0638 26.5576 32.5051 26.4 31.9352 26.4C31.3654 26.4 30.8066 26.5576 30.3207 26.8553C29.8349 27.153 29.4408 27.5793 29.182 28.0871C28.9233 28.5948 28.81 29.1642 28.8547 29.7323C28.8994 30.3004 29.1003 30.845 29.4352 31.3061C29.0104 31.5768 28.6322 31.9145 28.3152 32.3061C28.2325 32.4131 28.1716 32.5354 28.1362 32.6659C28.1007 32.7965 28.0913 32.9327 28.1084 33.0669C28.1256 33.2011 28.1691 33.3305 28.2363 33.4479C28.3035 33.5653 28.3932 33.6683 28.5002 33.7511C28.6072 33.8338 28.7295 33.8946 28.86 33.9301C28.9906 33.9656 29.1268 33.975 29.261 33.9578C29.3952 33.9407 29.5247 33.8972 29.6421 33.83C29.7595 33.7628 29.8625 33.6731 29.9452 33.5661C30.1894 33.2556 30.5007 33.0044 30.8557 32.8313C31.2107 32.6581 31.6002 32.5674 31.9952 32.5661C32.3902 32.5674 32.7797 32.6581 33.1347 32.8313C33.4897 33.0044 33.801 33.2556 34.0452 33.5661C34.1393 33.6821 34.2582 33.7755 34.3932 33.8396C34.5282 33.9036 34.6758 33.9366 34.8252 33.9361C35.0127 33.9352 35.1961 33.8817 35.3546 33.7816C35.5131 33.6814 35.6403 33.5388 35.7216 33.3699C35.8029 33.201 35.8352 33.0126 35.8146 32.8263C35.794 32.64 35.7214 32.4632 35.6052 32.3161C35.274 31.9168 34.8786 31.5754 34.4352 31.3061ZM31.9452 30.5761C31.7314 30.5759 31.5223 30.5129 31.344 30.3948C31.1657 30.2767 31.0261 30.1088 30.9426 29.9119C30.859 29.7151 30.8352 29.498 30.8741 29.2877C30.9131 29.0774 31.013 28.8832 31.1614 28.7293C31.3099 28.5754 31.5004 28.4686 31.7091 28.4221C31.9178 28.3756 32.1356 28.3916 32.3354 28.468C32.5351 28.5444 32.7079 28.6779 32.8324 28.8518C32.9568 29.0257 33.0274 29.2324 33.0352 29.4461C33.0406 29.5925 33.0164 29.7386 32.964 29.8755C32.9116 30.0124 32.8322 30.1373 32.7304 30.2428C32.6287 30.3483 32.5067 30.4322 32.3718 30.4894C32.2369 30.5467 32.0918 30.5762 31.9452 30.5761Z" fill="white"/>
</svg>
