    <svg
      className="h-8 mr-3 sm:h-10 order-first"
      width="165"
      height="50"
      viewBox="0 0 165 50"
      fill="none"
      xmlns="http://www.w3.org/2000/svg"
    >
      <!-- clipPath -->
      <g clipPath="url(#clip0_734_271)">
        <path
          d="M50.7191 17.6843C50.8375 17.5691 50.9559 17.5115 51.1334 17.5115H56.6374C56.8149 17.5115 56.9333 17.5691 57.0516 17.6843C57.17 17.7995 57.2292 17.9147 57.2292 18.0875V38.8825C57.2292 42.8571 56.0455 45.7373 53.6782 47.4078C51.311 49.1359 48.2927 49.9424 44.5642 49.9424C43.4397 49.9424 42.2561 49.8848 40.8949 49.712C40.599 49.6544 40.4214 49.4815 40.4214 49.1359L40.599 44.4124C40.599 44.0092 40.8357 43.8364 41.25 43.894C42.3744 44.0668 43.3805 44.182 44.3275 44.182C46.3397 44.182 47.8784 43.7788 48.9437 42.9147C50.0089 42.0507 50.5416 40.6682 50.5416 38.8249C50.5416 38.7097 50.4824 38.6521 50.4232 38.6521C50.364 38.6521 50.3049 38.6521 50.2457 38.7097C49.062 39.9769 47.3457 40.553 45.0376 40.553C43.0254 40.553 41.1316 40.0921 39.4153 39.1129C37.699 38.1336 36.5154 36.6359 35.8052 34.5046C35.3318 33.1221 35.095 31.2788 35.095 29.0898C35.095 26.7281 35.3909 24.7696 35.9236 23.2719C36.5746 21.4286 37.6991 19.9309 39.2378 18.7788C40.7765 17.6267 42.6112 17.1083 44.6826 17.1083C47.109 17.1083 48.9437 17.7995 50.2457 19.182C50.3049 19.2396 50.364 19.2396 50.4232 19.2396C50.4824 19.2396 50.5416 19.182 50.5416 19.0668V17.9723C50.5416 17.9147 50.6008 17.7995 50.7191 17.6843ZM50.5416 29.0898C50.5416 28.1682 50.4824 27.4193 50.4232 26.9009C50.364 26.3825 50.2457 25.9216 50.0681 25.4608C49.7722 24.6544 49.2988 23.9631 48.6478 23.5023C47.9968 22.9839 47.1682 22.7534 46.2213 22.7534C45.2744 22.7534 44.505 22.9839 43.854 23.5023C43.203 24.0207 42.7295 24.6544 42.3744 25.4608C41.9602 26.3825 41.7234 27.5921 41.7234 29.1474C41.7234 30.8756 41.901 32.0852 42.3153 32.7765C42.6112 33.5829 43.0846 34.2742 43.7948 34.735C44.505 35.2534 45.3336 35.4838 46.2805 35.4838C47.2866 35.4838 48.1151 35.2534 48.7661 34.735C49.4171 34.2166 49.8906 33.5829 50.1273 32.7765C50.4232 31.9124 50.5416 30.6451 50.5416 29.0898Z"
          fill="#5063AA"
        />
        <path
          d="M76.5818 17.8571C76.8185 17.9723 76.9369 18.2028 76.8777 18.5484L75.8716 23.7327C75.8124 24.0783 75.6349 24.1935 75.2206 24.0783C74.7471 23.9055 74.2145 23.8479 73.5635 23.8479C73.3267 23.8479 72.9717 23.9055 72.5574 23.9631C71.4329 24.0783 70.486 24.4816 69.7166 25.1728C68.9473 25.864 68.533 26.8433 68.533 28.053V40.4954C68.533 40.6682 68.4738 40.7834 68.3554 40.8986C68.2371 41.0138 68.1187 41.0714 67.9412 41.0714H62.4372C62.2597 41.0714 62.1413 41.0138 62.0229 40.8986C61.9046 40.7834 61.8454 40.6682 61.8454 40.4954V18.0876C61.8454 17.9147 61.9046 17.7995 62.0229 17.6843C62.1413 17.5691 62.2597 17.5115 62.4372 17.5115H67.9412C68.1187 17.5115 68.2371 17.5691 68.3554 17.6843C68.4738 17.7995 68.533 17.9147 68.533 18.0876V19.8157C68.533 19.9309 68.5922 19.9885 68.6514 19.9885C68.7105 20.0461 68.7697 19.9885 68.7697 19.9309C70.0717 18.0876 71.788 17.1659 73.9186 17.1659C75.043 17.2235 75.9308 17.3963 76.5818 17.8571Z"
          fill="#5063AA"
        />
        <path
          d="M100.787 30.7027C100.728 31.0483 100.551 31.2212 100.195 31.2212H85.6958C85.5183 31.2212 85.4591 31.2788 85.5183 31.4516C85.6366 32.0852 85.8142 32.6612 86.0509 33.2949C86.8795 35.023 88.5366 35.8294 91.0222 35.8294C93.0344 35.7718 94.5732 35.023 95.7568 33.4677C95.8752 33.2949 96.0527 33.1797 96.1711 33.1797C96.2894 33.1797 96.3486 33.2373 96.5262 33.3525L99.8996 36.5783C100.077 36.7511 100.136 36.8663 100.136 36.9815C100.136 37.0391 100.077 37.1543 99.9587 37.3271C98.9526 38.5944 97.5914 39.5161 95.9935 40.2073C94.3956 40.8986 92.561 41.2442 90.6671 41.2442C88.0039 41.2442 85.6958 40.6682 83.8612 39.4585C82.0265 38.2488 80.6653 36.6359 79.8368 34.5046C79.1858 33.0069 78.8307 30.9907 78.8307 28.5138C78.8307 26.8433 79.0674 25.3456 79.5409 24.0783C80.2511 21.8894 81.4939 20.2188 83.3285 18.894C85.104 17.6267 87.2346 16.993 89.7202 16.993C92.8569 16.993 95.3425 17.8571 97.2364 19.6428C99.1302 21.4285 100.255 23.7903 100.669 26.7281C100.787 27.9953 100.846 29.2626 100.787 30.7027ZM85.755 25.3456C85.6366 25.7488 85.5183 26.2096 85.3999 26.7857C85.3999 26.9585 85.4591 27.0161 85.6366 27.0161H93.7446C93.9222 27.0161 93.9813 26.9585 93.9222 26.7857C93.7446 25.9216 93.6854 25.4608 93.6854 25.5184C93.3895 24.5967 92.9161 23.9055 92.2059 23.387C91.4957 22.8686 90.6079 22.6382 89.6018 22.6382C87.708 22.6958 86.406 23.5599 85.755 25.3456Z"
          fill="#5063AA"
        />
        <path
          d="M126.354 30.7027C126.295 31.0483 126.117 31.2212 125.762 31.2212H111.263C111.085 31.2212 111.026 31.2788 111.085 31.4516C111.203 32.0852 111.381 32.6612 111.618 33.2949C112.446 35.023 114.103 35.8294 116.589 35.8294C118.601 35.7718 120.14 35.023 121.324 33.4677C121.442 33.2949 121.619 33.1797 121.738 33.1797C121.856 33.1797 121.915 33.2373 122.093 33.3525L125.466 36.5783C125.644 36.7511 125.703 36.8663 125.703 36.9815C125.703 37.0391 125.644 37.1543 125.525 37.3271C124.519 38.5944 123.158 39.5161 121.56 40.2073C119.962 40.8986 118.128 41.2442 116.234 41.2442C113.571 41.2442 111.263 40.6682 109.428 39.4585C107.593 38.2488 106.232 36.6359 105.404 34.5046C104.753 33.0069 104.397 30.9907 104.397 28.5138C104.397 26.8433 104.634 25.3456 105.108 24.0783C105.818 21.8894 107.061 20.2188 108.895 18.894C110.671 17.6267 112.801 16.993 115.287 16.993C118.424 16.993 120.909 17.8571 122.803 19.6428C124.697 21.4285 125.821 23.7903 126.236 26.7281C126.354 27.9953 126.413 29.2626 126.354 30.7027ZM111.381 25.3456C111.263 25.7488 111.144 26.2096 111.026 26.7857C111.026 26.9585 111.085 27.0161 111.263 27.0161H119.371C119.548 27.0161 119.607 26.9585 119.548 26.7857C119.371 25.9216 119.311 25.4608 119.311 25.5184C119.015 24.5967 118.542 23.9055 117.832 23.387C117.122 22.8686 116.234 22.6382 115.228 22.6382C113.275 22.6958 111.973 23.5599 111.381 25.3456Z"
          fill="#5063AA"
        />
        <path
          d="M162.929 19.2972C164.29 20.7373 165 22.7535 165 25.3456V40.4378C165 40.6106 164.941 40.7258 164.822 40.841C164.704 40.9562 164.586 41.0138 164.408 41.0138H158.904C158.727 41.0138 158.608 40.9562 158.49 40.841C158.372 40.7258 158.312 40.6106 158.312 40.4378V26.7281C158.312 25.4608 157.957 24.4816 157.306 23.7903C156.655 23.0415 155.768 22.6958 154.702 22.6958C153.578 22.6958 152.69 23.0415 152.039 23.7903C151.329 24.5392 151.033 25.5184 151.033 26.7281V40.4954C151.033 40.6682 150.974 40.7834 150.855 40.8986C150.737 41.0138 150.619 41.0714 150.441 41.0714H144.996C144.819 41.0714 144.701 41.0138 144.582 40.8986C144.464 40.7834 144.405 40.6682 144.405 40.4954V26.7281C144.405 25.5184 144.05 24.5392 143.399 23.7903C142.688 23.0415 141.801 22.6958 140.735 22.6958C139.729 22.6958 138.901 22.9839 138.25 23.5599C137.599 24.1359 137.184 24.9424 137.066 25.9793V40.4378C137.066 40.6106 137.007 40.7258 136.888 40.841C136.77 40.9562 136.652 41.0138 136.474 41.0138H130.97C130.793 41.0138 130.674 40.9562 130.556 40.841C130.438 40.7258 130.378 40.6106 130.378 40.4378V18.0876C130.378 17.9147 130.438 17.7995 130.556 17.6843C130.674 17.5691 130.793 17.5115 130.97 17.5115H136.474C136.652 17.5115 136.77 17.5691 136.888 17.6843C137.007 17.7995 137.066 17.9147 137.066 18.0876V19.8733C137.066 19.9885 137.125 20.0461 137.184 20.0461C137.244 20.1037 137.303 20.0461 137.362 19.9309C138.664 18.0876 140.617 17.1659 143.339 17.1659C144.878 17.1659 146.298 17.5115 147.423 18.1452C148.607 18.7788 149.494 19.7005 150.145 20.9101C150.264 21.0829 150.323 21.0829 150.5 20.9101C151.211 19.6429 152.098 18.7212 153.282 18.1452C154.466 17.5115 155.768 17.2235 157.247 17.2235C159.614 17.1659 161.508 17.8571 162.929 19.2972Z"
          fill="#5063AA"
        />
        <path
          d="M7.62939e-06 11.6935V28.8018C7.62939e-06 35.2535 5.38559 40.4378 11.9548 40.4378H18.7016C18.7016 39.9193 18.5832 38.9977 18.0506 38.5369C15.269 36.2327 14.1446 33.0069 13.7895 31.7396H12.1915C10.2385 31.7396 8.64061 30.1843 8.64061 28.2834V12.3272C8.64061 10.4263 10.2385 8.87097 12.1915 8.87097H19.9444C21.9566 8.87097 23.4953 10.4263 23.4953 12.3272V17.9723C24.2647 18.0876 24.7382 18.2028 24.7382 18.2028C26.3361 18.4908 29.2952 19.9309 29.4136 23.3295L29.4728 35.3111C30.7748 33.4101 31.5441 31.2212 31.5441 28.8018V11.6935C31.5441 5.24193 26.1585 0 19.5301 0H12.014C5.38559 0 7.62939e-06 5.24193 7.62939e-06 11.6935Z"
          fill="#5063AA"
        />
        <path
          d="M18.0506 26.3247C19.4118 27.0735 18.6424 29.7809 21.0097 31.3938C21.1281 31.4514 21.3056 31.4514 21.424 31.4514C22.6668 30.933 23.4953 29.7809 23.4953 28.3408V20.0459C23.9688 20.1035 24.2055 20.1611 24.2055 20.1611C24.4423 20.2187 27.2238 20.7947 27.3422 23.3869L27.4014 37.615C25.6259 39.1703 23.3178 40.2072 20.773 40.4376C20.773 39.5735 20.5954 38.0183 19.4118 37.039C17.9322 35.8293 17.0445 34.274 16.4527 33.0643C16.3935 32.9491 16.3343 32.7763 16.2751 32.6035C16.1567 32.3155 16.0384 32.0275 15.9792 31.7971C15.8608 31.4514 15.8017 31.1634 15.7425 30.9906C15.7425 30.8754 15.6833 30.8178 15.6833 30.8178C15.4466 29.9537 15.3874 29.0897 15.3282 28.2256C15.269 26.1519 17.2812 25.9215 18.0506 26.3247Z"
          fill="#5063AA"
        />
      </g>
      <defs>
        <clipPath id="clip0_734_271">
          <rect width="165" height="50" fill="white" />
        </clipPath>
      </defs>
    </svg>
