
<svg width="64" height="64" viewBox="0 0 64 64" fill="none" xmlns="http://www.w3.org/2000/svg">
<circle cx="32" cy="32" r="32" fill="#A5BEE2"/>
<path d="M38 25H39V26C39 26.2652 39.1054 26.5196 39.2929 26.7071C39.4804 26.8946 39.7348 27 40 27C40.2652 27 40.5196 26.8946 40.7071 26.7071C40.8946 26.5196 41 26.2652 41 26V25H42C42.2652 25 42.5196 24.8946 42.7071 24.7071C42.8946 24.5196 43 24.2652 43 24C43 23.7348 42.8946 23.4804 42.7071 23.2929C42.5196 23.1053 42.2652 23 42 23H41V22C41 21.7348 40.8946 21.4804 40.7071 21.2929C40.5196 21.1053 40.2652 21 40 21C39.7348 21 39.4804 21.1053 39.2929 21.2929C39.1054 21.4804 39 21.7348 39 22V23H38C37.7348 23 37.4804 23.1053 37.2929 23.2929C37.1054 23.4804 37 23.7348 37 24C37 24.2652 37.1054 24.5196 37.2929 24.7071C37.4804 24.8946 37.7348 25 38 25ZM32.5 26H31.5C30.7044 26 29.9413 26.3161 29.3787 26.8787C28.8161 27.4413 28.5 28.2043 28.5 29V35C28.5 35.7956 28.8161 36.5587 29.3787 37.1213C29.9413 37.6839 30.7044 38 31.5 38H32.5C33.2957 38 34.0587 37.6839 34.6213 37.1213C35.1839 36.5587 35.5 35.7956 35.5 35V29C35.5 28.2043 35.1839 27.4413 34.6213 26.8787C34.0587 26.3161 33.2957 26 32.5 26ZM33.5 35C33.5 35.2652 33.3946 35.5196 33.2071 35.7071C33.0196 35.8946 32.7652 36 32.5 36H31.5C31.2348 36 30.9804 35.8946 30.7929 35.7071C30.6054 35.5196 30.5 35.2652 30.5 35V29C30.5 28.7348 30.6054 28.4804 30.7929 28.2929C30.9804 28.1053 31.2348 28 31.5 28H32.5C32.7652 28 33.0196 28.1053 33.2071 28.2929C33.3946 28.4804 33.5 28.7348 33.5 29V35ZM41.6 29C41.4713 29.0262 41.349 29.0776 41.2402 29.1511C41.1313 29.2246 41.038 29.3188 40.9656 29.4284C40.8931 29.538 40.843 29.6608 40.818 29.7897C40.793 29.9187 40.7937 30.0513 40.82 30.18C41.2104 32.0762 40.979 34.0478 40.1601 35.802C39.3412 37.5563 37.9785 38.9997 36.2741 39.9181C34.5698 40.8364 32.6148 41.1807 30.6993 40.8999C28.7838 40.619 27.0099 39.728 25.641 38.359C24.272 36.9901 23.381 35.2162 23.1001 33.3007C22.8193 31.3852 23.1636 29.4302 24.0819 27.7259C25.0003 26.0215 26.4437 24.6588 28.198 23.8399C29.9522 23.021 31.9238 22.7896 33.82 23.18C34.0852 23.233 34.3606 23.1785 34.5857 23.0285C34.8107 22.8785 34.967 22.6452 35.02 22.38C35.073 22.1148 35.0186 21.8394 34.8685 21.6143C34.7185 21.3893 34.4852 21.233 34.22 21.18C33.4882 21.0436 32.7442 20.9833 32 21C29.8244 21 27.6977 21.6451 25.8887 22.8538C24.0798 24.0625 22.6699 25.7805 21.8373 27.7905C21.0048 29.8005 20.7869 32.0122 21.2114 34.146C21.6358 36.2798 22.6835 38.2398 24.2218 39.7782C25.7602 41.3165 27.7202 42.3642 29.854 42.7886C31.9878 43.2131 34.1995 42.9952 36.2095 42.1627C38.2195 41.3301 39.9375 39.9202 41.1462 38.1113C42.3549 36.3023 43 34.1756 43 32C43.0021 31.2611 42.9284 30.5239 42.78 29.8C42.7561 29.6695 42.7064 29.5451 42.6338 29.4339C42.5613 29.3228 42.4674 29.2273 42.3576 29.1528C42.2478 29.0783 42.1242 29.0265 41.9942 29.0003C41.8641 28.974 41.7301 28.9739 41.6 29Z" fill="white"/>
</svg>
