
<svg width="64" height="64" viewBox="0 0 64 64" fill="none" xmlns="http://www.w3.org/2000/svg">
<circle cx="32" cy="32" r="32" fill="#E2A5D1"/>
<path d="M34.3 32.22C34.8336 31.7581 35.2616 31.1869 35.5549 30.545C35.8482 29.9032 36 29.2057 36 28.5C36 27.1739 35.4732 25.9021 34.5355 24.9645C33.5979 24.0268 32.3261 23.5 31 23.5C29.6739 23.5 28.4021 24.0268 27.4645 24.9645C26.5268 25.9021 26 27.1739 26 28.5C26 29.2057 26.1518 29.9032 26.4451 30.545C26.7384 31.1869 27.1664 31.7581 27.7 32.22C26.3001 32.8539 25.1125 33.8775 24.279 35.1685C23.4455 36.4596 23.0015 37.9633 23 39.5C23 39.7652 23.1054 40.0196 23.2929 40.2071C23.4804 40.3946 23.7348 40.5 24 40.5C24.2652 40.5 24.5196 40.3946 24.7071 40.2071C24.8946 40.0196 25 39.7652 25 39.5C25 37.9087 25.6321 36.3826 26.7574 35.2574C27.8826 34.1321 29.4087 33.5 31 33.5C32.5913 33.5 34.1174 34.1321 35.2426 35.2574C36.3679 36.3826 37 37.9087 37 39.5C37 39.7652 37.1054 40.0196 37.2929 40.2071C37.4804 40.3946 37.7348 40.5 38 40.5C38.2652 40.5 38.5196 40.3946 38.7071 40.2071C38.8946 40.0196 39 39.7652 39 39.5C38.9985 37.9633 38.5545 36.4596 37.721 35.1685C36.8875 33.8775 35.6999 32.8539 34.3 32.22ZM31 31.5C30.4067 31.5 29.8266 31.3241 29.3333 30.9944C28.8399 30.6648 28.4554 30.1962 28.2284 29.6481C28.0013 29.0999 27.9419 28.4967 28.0576 27.9147C28.1734 27.3328 28.4591 26.7982 28.8787 26.3787C29.2982 25.9591 29.8328 25.6734 30.4147 25.5576C30.9967 25.4419 31.5999 25.5013 32.1481 25.7284C32.6962 25.9554 33.1648 26.3399 33.4944 26.8333C33.8241 27.3266 34 27.9067 34 28.5C34 29.2956 33.6839 30.0587 33.1213 30.6213C32.5587 31.1839 31.7956 31.5 31 31.5Z" fill="white"/>
<path d="M37.6646 28.5836L37.5487 29.2758C37.5294 29.392 37.5436 29.5113 37.5896 29.6197C37.6357 29.7281 37.7116 29.8212 37.8085 29.888C37.8992 29.9541 38.0071 29.9927 38.1191 29.9991C38.2311 30.0054 38.3426 29.9794 38.4403 29.924L39.008 29.5999L39.5837 29.916C39.6797 29.9709 39.7892 29.9974 39.8997 29.9924C40.0101 29.9875 40.1168 29.9512 40.2075 29.888C40.3016 29.8208 40.375 29.7286 40.4196 29.6219C40.4641 29.5151 40.4778 29.398 40.4593 29.2838L40.3434 28.5916L40.8232 28.1035C40.9024 28.0229 40.9579 27.9222 40.9837 27.8122C41.0095 27.7022 41.0046 27.5872 40.9695 27.4799C40.9344 27.3725 40.8705 27.2768 40.7848 27.2033C40.699 27.1298 40.5948 27.0814 40.4833 27.0632L39.8356 26.9672L39.5438 26.347C39.4956 26.2433 39.4188 26.1556 39.3225 26.0941C39.2261 26.0327 39.1142 26 39 26C38.8858 26 38.7739 26.0327 38.6775 26.0941C38.5812 26.1556 38.5044 26.2433 38.4562 26.347L38.1644 26.9672L37.5167 27.0632C37.4052 27.0814 37.301 27.1298 37.2152 27.2033C37.1295 27.2768 37.0656 27.3725 37.0305 27.4799C36.9954 27.5872 36.9905 27.7022 37.0163 27.8122C37.0421 27.9222 37.0976 28.0229 37.1768 28.1035L37.6646 28.5836Z" fill="white"/>
</svg>
