
<svg width="64" height="64" viewBox="0 0 64 64" fill="none" xmlns="http://www.w3.org/2000/svg">
<circle cx="32" cy="32" r="32" fill="#E9AFAF"/>
<path d="M27 36C27.3978 36 27.7794 35.842 28.0607 35.5607C28.342 35.2794 28.5 34.8978 28.5 34.5C28.5049 34.4501 28.5049 34.3999 28.5 34.35L31.29 31.56H31.52H31.75L33.36 33.17C33.36 33.17 33.36 33.22 33.36 33.25C33.36 33.6478 33.518 34.0294 33.7993 34.3107C34.0806 34.592 34.4622 34.75 34.86 34.75C35.2578 34.75 35.6394 34.592 35.9207 34.3107C36.202 34.0294 36.36 33.6478 36.36 33.25V33.17L40 29.5C40.2967 29.5 40.5867 29.412 40.8334 29.2472C41.08 29.0824 41.2723 28.8481 41.3858 28.574C41.4993 28.2999 41.5291 27.9983 41.4712 27.7074C41.4133 27.4164 41.2704 27.1491 41.0607 26.9393C40.8509 26.7296 40.5836 26.5867 40.2926 26.5288C40.0017 26.4709 39.7001 26.5006 39.426 26.6142C39.1519 26.7277 38.9176 26.92 38.7528 27.1666C38.588 27.4133 38.5 27.7033 38.5 28C38.4951 28.0499 38.4951 28.1001 38.5 28.15L34.89 31.76H34.73L33 30C33 29.6022 32.842 29.2206 32.5607 28.9393C32.2794 28.658 31.8978 28.5 31.5 28.5C31.1022 28.5 30.7206 28.658 30.4393 28.9393C30.158 29.2206 30 29.6022 30 30L27 33C26.6022 33 26.2206 33.158 25.9393 33.4393C25.658 33.7206 25.5 34.1022 25.5 34.5C25.5 34.8978 25.658 35.2794 25.9393 35.5607C26.2206 35.842 26.6022 36 27 36ZM40.5 40H23.5V23C23.5 22.7348 23.3946 22.4804 23.2071 22.2929C23.0196 22.1054 22.7652 22 22.5 22C22.2348 22 21.9804 22.1054 21.7929 22.2929C21.6054 22.4804 21.5 22.7348 21.5 23V41C21.5 41.2652 21.6054 41.5196 21.7929 41.7071C21.9804 41.8946 22.2348 42 22.5 42H40.5C40.7652 42 41.0196 41.8946 41.2071 41.7071C41.3946 41.5196 41.5 41.2652 41.5 41C41.5 40.7348 41.3946 40.4804 41.2071 40.2929C41.0196 40.1054 40.7652 40 40.5 40Z" fill="white"/>
</svg>
