
<svg width="64" height="64" viewBox="0 0 64 64" fill="none" xmlns="http://www.w3.org/2000/svg">
<circle cx="32" cy="32" r="32" fill="#E9AFAF"/>
<path d="M32 22C30.0222 22 28.0888 22.5865 26.4443 23.6853C24.7998 24.7841 23.5181 26.3459 22.7612 28.1732C22.0043 30.0004 21.8063 32.0111 22.1922 33.9509C22.578 35.8907 23.5304 37.6725 24.9289 39.0711C26.3275 40.4696 28.1093 41.422 30.0491 41.8079C31.9889 42.1937 33.9996 41.9957 35.8268 41.2388C37.6541 40.4819 39.2159 39.2002 40.3147 37.5557C41.4135 35.9112 42 33.9778 42 32C42 30.6868 41.7413 29.3864 41.2388 28.1732C40.7363 26.9599 39.9997 25.8575 39.0711 24.9289C38.1425 24.0003 37.0401 23.2638 35.8268 22.7612C34.6136 22.2587 33.3132 22 32 22ZM32 40C30.4178 40 28.871 39.5308 27.5554 38.6518C26.2398 37.7727 25.2145 36.5233 24.609 35.0615C24.0035 33.5997 23.845 31.9911 24.1537 30.4393C24.4624 28.8874 25.2243 27.462 26.3432 26.3431C27.462 25.2243 28.8874 24.4624 30.4393 24.1537C31.9911 23.845 33.5997 24.0035 35.0615 24.609C36.5233 25.2145 37.7727 26.2398 38.6518 27.5554C39.5308 28.871 40 30.4177 40 32C40 34.1217 39.1572 36.1566 37.6569 37.6569C36.1566 39.1571 34.1217 40 32 40ZM35.1 32.63L33 31.42V27C33 26.7348 32.8946 26.4804 32.7071 26.2929C32.5196 26.1054 32.2652 26 32 26C31.7348 26 31.4804 26.1054 31.2929 26.2929C31.1054 26.4804 31 26.7348 31 27V32C31 32 31 32.08 31 32.12C31.0059 32.1889 31.0228 32.2564 31.05 32.32C31.0706 32.3793 31.0974 32.4363 31.13 32.49C31.1574 32.5468 31.1909 32.6005 31.23 32.65L31.39 32.78L31.48 32.87L34.08 34.37C34.2324 34.4564 34.4048 34.5012 34.58 34.5C34.8014 34.5015 35.0171 34.4296 35.1932 34.2953C35.3693 34.1611 35.4959 33.9722 35.5531 33.7583C35.6103 33.5444 35.5948 33.3176 35.5092 33.1134C35.4236 32.9092 35.2726 32.7392 35.08 32.63H35.1Z" fill="white"/>
</svg>
