
<svg width="64" height="64" viewBox="0 0 64 64" fill="none" xmlns="http://www.w3.org/2000/svg">
<circle cx="32" cy="32" r="32" fill="#80E4CC"/>
<path d="M41 38.5H34.82C34.6707 38.0806 34.4299 37.6997 34.1151 37.3849C33.8003 37.0701 33.4194 36.8293 33 36.68V33.5H36.17C37.2289 33.5348 38.2637 33.1802 39.0787 32.5033C39.8937 31.8264 40.4323 30.8742 40.5924 29.827C40.7526 28.7797 40.5233 27.7101 39.9478 26.8205C39.3724 25.931 38.4909 25.2833 37.47 25C36.9352 23.8151 36.0301 22.8359 34.8907 22.2098C33.7514 21.5837 32.4396 21.3446 31.1526 21.5285C29.8657 21.7123 28.6733 22.3092 27.7548 23.2292C26.8364 24.1493 26.2416 25.3427 26.06 26.63C25.2462 26.8582 24.5425 27.3732 24.0788 28.0799C23.6151 28.7865 23.4228 29.6371 23.5373 30.4745C23.6519 31.3119 24.0656 32.0795 24.7021 32.6357C25.3386 33.1918 26.1548 33.4988 27 33.5H31V36.68C30.5806 36.8293 30.1997 37.0701 29.8849 37.3849C29.5701 37.6997 29.3293 38.0806 29.18 38.5H23C22.7348 38.5 22.4804 38.6054 22.2929 38.7929C22.1054 38.9804 22 39.2348 22 39.5C22 39.7652 22.1054 40.0196 22.2929 40.2071C22.4804 40.3947 22.7348 40.5 23 40.5H29.18C29.3902 41.0792 29.7736 41.5795 30.2782 41.9332C30.7827 42.2868 31.3839 42.4765 32 42.4765C32.6161 42.4765 33.2173 42.2868 33.7218 41.9332C34.2264 41.5795 34.6098 41.0792 34.82 40.5H41C41.2652 40.5 41.5196 40.3947 41.7071 40.2071C41.8946 40.0196 42 39.7652 42 39.5C42 39.2348 41.8946 38.9804 41.7071 38.7929C41.5196 38.6054 41.2652 38.5 41 38.5ZM27 31.5C26.6022 31.5 26.2206 31.342 25.9393 31.0607C25.658 30.7794 25.5 30.3978 25.5 30C25.5 29.6022 25.658 29.2207 25.9393 28.9393C26.2206 28.658 26.6022 28.5 27 28.5C27.2652 28.5 27.5196 28.3946 27.7071 28.2071C27.8946 28.0196 28 27.7652 28 27.5C27.9974 26.5505 28.3326 25.6311 28.9457 24.9061C29.5588 24.1811 30.4098 23.6978 31.3465 23.5427C32.2832 23.3876 33.2446 23.5708 34.0586 24.0594C34.8727 24.5481 35.4864 25.3104 35.79 26.21C35.8472 26.3818 35.9499 26.5349 36.0873 26.6529C36.2247 26.7709 36.3915 26.8494 36.57 26.88C37.1113 26.9703 37.6027 27.2503 37.9564 27.6699C38.31 28.0895 38.5027 28.6213 38.5 29.17C38.4974 29.7872 38.251 30.3783 37.8147 30.8147C37.3783 31.251 36.7871 31.4974 36.17 31.5H27ZM32 40.5C31.8022 40.5 31.6089 40.4414 31.4444 40.3315C31.28 40.2216 31.1518 40.0654 31.0761 39.8827C31.0004 39.7 30.9806 39.4989 31.0192 39.3049C31.0578 39.1109 31.153 38.9328 31.2929 38.7929C31.4327 38.653 31.6109 38.5578 31.8049 38.5192C31.9989 38.4806 32.2 38.5004 32.3827 38.5761C32.5654 38.6518 32.7216 38.78 32.8315 38.9444C32.9414 39.1089 33 39.3022 33 39.5C33 39.7652 32.8946 40.0196 32.7071 40.2071C32.5196 40.3947 32.2652 40.5 32 40.5Z" fill="white"/>
</svg>
