<?xml version="1.0" encoding="UTF-8"?>
<svg width="61px" height="60px" viewBox="0 0 61 60" version="1.1" xmlns="http://www.w3.org/2000/svg" xmlns:xlink="http://www.w3.org/1999/xlink">
    <!-- Generator: Sketch 57.1 (83088) - https://sketch.com -->
    <title>wagely_symbol_productivity_2</title>
    <desc>Created with Sketch.</desc>
    <g id="wagely_symbol_productivity_2" stroke="none" stroke-width="1" fill="none" fillRule="evenodd">
        <path d="M40.8200003,51.7190262 C41.6484274,51.7190262 42.3200003,52.3905991 42.3200003,53.2190262 L42.3200003,56.2190262 C42.3200003,57.0474533 41.6484274,57.7190262 40.8200003,57.7190262 C39.9915732,57.7190262 39.3200003,57.0474533 39.3200003,56.2190262 L39.3200003,53.2190262 C39.3200003,52.3905991 39.9915732,51.7190262 40.8200003,51.7190262 Z M29.5080149,51.5215748 C30.3364421,51.5215748 31.0080149,52.1931476 31.0080149,53.0215748 L31.0080149,56.0215748 C31.0080149,56.8500019 30.3364421,57.5215748 29.5080149,57.5215748 C28.6795878,57.5215748 28.0080149,56.8500019 28.0080149,56.0215748 L28.0080149,53.0215748 C28.0080149,52.1931476 28.6795878,51.5215748 29.5080149,51.5215748 Z M35.9327103,48.0976458 C36.7611374,48.0976458 37.4327103,48.7692186 37.4327103,49.5976458 L37.4327103,52.5976458 C37.4327103,53.4260729 36.7611374,54.0976458 35.9327103,54.0976458 C35.1042832,54.0976458 34.4327103,53.4260729 34.4327103,52.5976458 L34.4327103,49.5976458 C34.4327103,48.7692186 35.1042832,48.0976458 35.9327103,48.0976458 Z M35.0126394,-7 L37.6392193,-4.36992293 C46.990859,5.00687357 51.0893388,18.0937305 49.3636631,30.6850656 C53.5890308,34.6492397 56.01259,40.2016247 55.9999508,45.9827119 C55.9999508,47.3612789 55.85419,48.778757 55.5627348,50.2010991 L55.4289056,50.8108727 L54.6802669,53.9872943 L53.4240765,51.001458 C51.926799,47.3803374 49.3382855,44.2547386 46.0899547,42.0566549 C45.6737624,42.9816288 45.2250867,43.8984712 44.737431,44.8006765 L44.364279,45.4744845 L44.059748,46.0081233 L25.9401532,46.0081233 L25.6356222,45.4744845 C24.9884938,44.3436784 24.4174982,43.2001666 23.8972577,42.0439492 C20.7738628,44.1574912 18.2605059,47.1285731 16.740717,50.5731544 L16.563136,50.9887523 L15.3196344,54 L14.5709956,50.8235784 C14.1903319,49.1845449 14,47.5709227 14,45.9954176 C14,40.2016247 16.4235593,34.6619454 20.648927,30.6850656 C18.9482611,18.2762136 22.9041578,5.38609867 31.9822346,-3.95991115 L32.3860595,-4.36992293 L35.0126394,-7 Z M21.0930347,33.2389086 C17.9081479,36.7202666 16.1190282,41.2689023 16.1190282,45.9954176 C16.1190282,46.3892939 16.131717,46.7831702 16.1570946,47.1897521 C17.8954591,44.3309727 20.2682632,41.8660696 23.085175,40.0491564 C23.0344198,39.9220996 22.9963535,39.8077484 22.9709759,39.7188086 L22.7885745,39.2296397 L22.6156897,38.7404707 L22.3999802,38.0924807 C22.2857811,37.7494272 22.171582,37.4063737 22.0700717,37.0633201 C22.0066277,36.8473235 21.9431837,36.6313268 21.8797398,36.4153301 C21.7782294,36.0722766 21.6894079,35.7419288 21.6005864,35.3988752 C21.5371424,35.1574672 21.4736984,34.9287648 21.4229433,34.6873568 C21.3468105,34.395126 21.2833666,34.0901895 21.2199226,33.7852531 C21.1818562,33.6073735 21.1311011,33.4167882 21.0930347,33.2389086 Z M48.9322441,33.2262029 L48.8688002,33.513669 L48.8053562,33.8106644 L48.6150243,34.6365341 C48.5515804,34.9033535 48.4754476,35.1701729 48.4120037,35.4369923 C48.3358709,35.7419288 48.2597382,36.0468652 48.1709166,36.3518017 C48.1074727,36.5932097 48.0313399,36.8346178 47.9552072,37.0760258 C47.8536968,37.393668 47.7521865,37.7113101 47.6506762,38.0289523 C47.5745434,38.2703603 47.4857219,38.4990627 47.4095891,38.727765 C47.3080788,39.0454072 47.1811909,39.3630494 47.0669917,39.6806915 C47.0289253,39.7950427 46.990859,39.9220996 46.9401038,40.0364507 C49.7570156,41.8660696 52.1298197,44.318267 53.8681842,47.1770464 C53.8935618,46.7831702 53.9062506,46.3765882 53.9062506,45.9827119 C53.9062506,41.2561966 52.1044421,36.7075609 48.9322441,33.2262029 Z M42.8289352,6.06144553 L27.1963436,6.06144553 C22.9963535,13.7737971 21.4863872,22.7058946 22.8821543,31.3330556 C22.9709759,31.8921058 23.0724862,32.4384503 23.1866853,32.9975005 C23.1993741,33.1245574 23.2247517,33.2389086 23.2501293,33.3532597 C23.4023948,34.0393668 23.5800379,34.7127682 23.757681,35.3861695 C23.7957474,35.5386378 23.8465025,35.6784003 23.8845689,35.8308686 C24.0749008,36.4788586 24.2652327,37.1141429 24.4809421,37.7494272 C24.5063197,37.7875443 24.5190085,37.838367 24.5316973,37.8891898 C24.7727843,38.5625911 25.0265602,39.2359925 25.2930248,39.8966882 C25.7295192,40.9741304 26.2228595,42.0434409 26.7665488,43.0981146 L27.1836548,43.8862737 L42.8543128,43.8862737 C43.5648852,42.577588 44.186636,41.2434909 44.7576316,39.8966882 C45.0240962,39.2359925 45.2905609,38.5625911 45.5189591,37.8891898 C45.5316479,37.8510727 45.5443367,37.8002499 45.5570255,37.7621329 C45.772735,37.1268486 45.9630668,36.4788586 46.1533987,35.8308686 C46.1914651,35.6784003 46.2295315,35.5386378 46.2675978,35.3988752 C46.4579297,34.7127682 46.622884,34.0266611 46.7751495,33.3405541 C46.7878383,33.2516142 46.8005271,33.1499688 46.8259047,33.061029 C46.9401038,32.4765674 47.0543029,31.8921058 47.1431245,31.3076442 C48.5262028,22.6804832 47.0289253,13.7737971 42.8289352,6.06144553 Z M34.7637372,10.2773383 C38.3544631,10.2773383 41.2637372,13.1997174 41.2637372,16.7773383 C41.2637372,20.3549593 38.3544631,23.2773383 34.7637372,23.2773383 C31.1730114,23.2773383 28.2637372,20.3549593 28.2637372,16.7773383 C28.2637372,13.1997174 31.1730114,10.2773383 34.7637372,10.2773383 Z M34.66886,11.7752047 C31.9942395,11.7752047 29.8311585,13.9382858 29.8311585,16.6129062 C29.8311585,19.2875267 32.008855,21.4506077 34.66886,21.4506077 C37.3288651,21.4506077 39.5065615,19.2875267 39.5065615,16.6129062 C39.5065615,13.9382858 37.3288651,11.7752047 34.66886,11.7752047 Z M35.0253282,-4.0268694 L33.8833369,-2.88335763 C31.9525258,-0.961622579 30.2776052,1.13093337 28.8292545,3.34537714 L28.4398452,3.9523016 L41.6108112,3.9523016 C40.2034127,1.71610081 38.5614478,-0.402660615 36.6849164,-2.35504961 L36.1673195,-2.88335763 L35.0253282,-4.0268694 Z" fill="#22AFFD" transform="translate(35.000000, 25.359513) rotate(44.000000) translate(-35.000000, -25.359513) "></path>
    </g>
</svg>