<?xml version="1.0" encoding="UTF-8"?>
<svg width="61px" height="60px" viewBox="0 0 61 60" version="1.1" xmlns="http://www.w3.org/2000/svg" xmlns:xlink="http://www.w3.org/1999/xlink">
    <!-- Generator: Sketch 57.1 (83088) - https://sketch.com -->
    <title>wagely_symbol_turnover</title>
    <desc>Created with Sketch.</desc>
    <g id="wagely_symbol_turnover" stroke="none" stroke-width="1" fill="none" fillRule="evenodd">
        <path d="M13,1 C16.3137085,1 19,3.6862915 19,7 L19,53 C19,56.3137085 16.3137085,59 13,59 C9.6862915,59 7,56.3137085 7,53 L7,7 C7,3.6862915 9.6862915,1 13,1 Z M31,15 C34.3137085,15 37,17.6862915 37,21 L37,53 C37,56.3137085 34.3137085,59 31,59 C27.6862915,59 25,56.3137085 25,53 L25,21 C25,17.6862915 27.6862915,15 31,15 Z M49,30 C52.3137085,30 55,32.6862915 55,36 L55,53 C55,56.3137085 52.3137085,59 49,59 C45.6862915,59 43,56.3137085 43,53 L43,36 C43,32.6862915 45.6862915,30 49,30 Z" stroke="#25E1FE" stroke-width="2"></path>
    </g>
</svg>