<?xml version="1.0" encoding="UTF-8"?>
<svg width="61px" height="60px" viewBox="0 0 61 60" version="1.1" xmlns="http://www.w3.org/2000/svg" xmlns:xlink="http://www.w3.org/1999/xlink">
    <!-- Generator: Sketch 57.1 (83088) - https://sketch.com -->
    <title>wagely_symbol_retention_2</title>
    <desc>Created with Sketch.</desc>
    <g id="wagely_symbol_retention_2" stroke="none" stroke-width="1" fill="none" fillRule="evenodd">
        <g id="handshake" transform="translate(0.000000, 6.000000)" fill="#237EFD" fillRule="nonzero">
            <path d="M60.5826951,14.4773962 L50.4211957,1.27735913 C50.045084,0.789155138 49.3590971,0.668725296 48.8389328,0.999444111 L42.2782856,5.17187494 L33.7217453,5.17187494 C33.6110425,5.17187494 33.5008029,5.19549775 33.3942688,5.22653162 L26.759974,7.13627103 L19.8760191,5.25339668 L13.1870677,0.999444111 C12.6757041,0.674283597 12.0022233,0.784523162 11.621943,1.25605237 L0.382596285,15.1777421 C-0.0213068775,15.6779891 0.0453927273,16.4084424 0.532670514,16.827631 L6.42354249,21.8972641 L11.7085598,29.0192997 C10.1628891,30.6659461 10.1929966,33.263062 11.8011982,34.8717267 C12.5140501,35.5841156 13.4205164,35.9866292 14.3529212,36.080194 C14.3204977,36.2914094 14.3038228,36.505867 14.3038228,36.7235672 C14.3038228,37.8472702 14.741539,38.9038106 15.5359128,39.6981843 C16.3307497,40.4930212 17.38729,40.9307374 18.5109931,40.9307374 C18.5262784,40.9307374 18.5411005,40.929811 18.5559226,40.9293478 C18.5554595,40.9580658 18.5540699,40.9863204 18.5540699,41.0150383 C18.5540699,42.1387414 18.991786,43.1952816 19.7861598,43.9901186 C20.5809968,44.7844924 21.637537,45.2222085 22.7612401,45.2222085 C22.983109,45.2222085 23.2026618,45.204144 23.418046,45.1707942 C23.5092947,46.1064414 23.9127346,47.0170764 24.6279026,47.7322443 C25.447752,48.5525568 26.5251358,48.9624815 27.6025198,48.9624815 C28.6799037,48.9624815 29.7572875,48.5525568 30.5776001,47.7322443 L31.2209733,47.088871 L31.4910141,47.3065711 C32.3043787,48.0944602 33.3604558,48.4881732 34.4165329,48.4881732 C35.4939167,48.4881732 36.5713007,48.0782485 37.3911499,47.257936 C38.2281374,46.4209486 38.638062,45.3162364 38.6209239,44.2170825 C39.7196146,44.2337575 40.82479,43.8242959 41.6617774,42.9877717 C42.4978385,42.1512476 42.9077631,41.0474617 42.8915514,39.948771 C44.0360981,39.9668354 45.1218194,39.5272665 45.9319417,38.7171443 C46.7689291,37.8801568 47.1788538,36.7754447 47.1617157,35.6762908 C48.2613327,35.6929657 49.3655817,35.2835042 50.2025692,34.4465168 C51.6310524,33.0180336 51.8149394,30.8099987 50.75562,29.1800271 L54.6144701,21.0982583 L60.4159461,16.1059783 C60.8953495,15.6932744 60.9685339,14.9781064 60.5826951,14.4773962 L60.5826951,14.4773962 Z M12.8063241,3.57895877 L17.6161067,6.6374136 L7.15306945,19.3844492 L2.96025818,15.7757226 L12.8063241,3.57895877 Z M13.4848999,30.6052681 L14.9365428,29.1536252 C14.980546,29.109622 15.0268651,29.0679348 15.0741107,29.0290267 C15.3580472,28.7974308 15.7017355,28.6593998 16.0658041,28.6265131 C16.0759943,28.6255867 16.0866477,28.6255867 16.0968379,28.6251235 C16.1487154,28.6209548 16.2005929,28.6181756 16.2529335,28.6185886 C16.7504015,28.6255867 17.2126667,28.8289279 17.5554286,29.1906806 C18.2279829,29.9016798 18.191854,31.0633646 17.4748333,31.7803854 L16.0671937,33.188025 C15.3552681,33.8999506 14.1968255,33.8999506 13.4848999,33.188025 C12.7729743,32.4756361 12.7729743,31.3171937 13.4848999,30.6052681 Z M17.2196146,38.0144825 C16.8745368,37.6698679 16.6846282,37.211308 16.6846282,36.7235672 C16.6846282,36.2358264 16.8745368,35.7772665 17.2196146,35.4321887 L20.0344306,32.6173728 C20.5735857,32.0782177 21.4212266,31.9304595 22.1104558,32.2588624 C22.8209918,32.5974555 23.2207263,33.3686697 23.1165082,34.1445158 C23.0609252,34.5586092 22.8682374,34.9486166 22.5727211,35.2445961 L19.8023715,38.0144825 C19.4572938,38.3595603 18.9987339,38.5494689 18.5109931,38.5494689 C18.0232523,38.5494689 17.5646924,38.3595603 17.2196146,38.0144825 Z M21.4698617,42.3059536 C21.1247839,41.9613389 20.9348752,41.5027792 20.9348752,41.0150383 C20.9348752,40.5272974 21.1247839,40.0687377 21.4698617,39.7236598 L24.2842144,36.9088439 C24.8608881,36.3326334 25.785882,36.208498 26.491786,36.6193491 C27.1365489,36.9945343 27.4742157,37.7310092 27.3635128,38.4647048 C27.3028347,38.8681448 27.1110734,39.2474987 26.8225049,39.5360672 L24.0526186,42.3059536 C23.7075408,42.6510313 23.2489809,42.84094 22.7612401,42.84094 C22.2734993,42.84094 21.8149394,42.6510313 21.4698617,42.3059536 Z M26.3111413,46.0485425 C25.5992157,45.3366169 25.5992157,44.1781745 26.3111413,43.4662487 L27.762784,42.014606 C27.8067873,41.9706028 27.8526433,41.9293787 27.8998888,41.8904706 C27.9012784,41.8895442 27.9022048,41.8886179 27.9031311,41.8876914 C28.139359,41.6959301 28.4168108,41.5676259 28.7127902,41.5115798 C28.7197381,41.5106534 28.726686,41.509727 28.7336338,41.5088007 C28.784585,41.4995368 28.8364625,41.4921258 28.8883399,41.4874938 C28.9091835,41.485641 28.9300271,41.485641 28.951334,41.4842515 C28.9939476,41.4819355 29.0360981,41.4791564 29.0791749,41.4796196 C29.5761796,41.4865675 30.0389081,41.6894454 30.38167,42.0516613 C30.4238204,42.0961277 30.4631917,42.1424469 30.4993207,42.1901556 C31.0468132,42.9057868 30.9731657,43.9688117 30.2936635,44.6487772 L28.8934351,46.0490057 C28.1815093,46.7609314 27.0230669,46.7604681 26.3111413,46.0485425 L26.3111413,46.0485425 Z M48.5188673,32.7628149 C47.8069417,33.4752038 46.6484993,33.4747406 45.9365737,32.7628149 C45.9106349,32.7368762 45.8833066,32.7127902 45.8555151,32.6900939 L38.200809,24.9547925 C37.7380805,24.4874321 36.9844677,24.4837266 36.5171073,24.9464551 C36.0497468,25.4087204 36.0460412,26.1623333 36.5083066,26.6296937 L44.2459239,34.4479064 C44.2468504,34.4488327 44.2477767,34.4497592 44.248703,34.4506855 C44.9606287,35.1626112 44.9606287,36.3215168 44.248703,37.0334424 C43.9036252,37.3785203 43.4450655,37.5684289 42.9573247,37.5684289 C42.4691206,37.5684289 42.0105607,37.3785203 41.6659461,37.0334424 L36.4897789,31.8035449 C36.0275136,31.3361845 35.2739006,31.332479 34.8065402,31.7947443 C34.3391798,32.2574729 34.3354743,33.0110857 34.7977397,33.4784461 L39.894701,38.6282115 C39.9206398,38.6606349 39.9484314,38.6916687 39.9780757,38.721313 C40.6900013,39.4332386 40.6900013,40.5921443 39.9780757,41.3040699 C39.2656868,42.0159955 38.1067812,42.0155323 37.3948555,41.3036067 L34.5698492,38.4489562 C34.1071208,37.9815958 33.3535079,37.9774272 32.8861475,38.4401556 C32.4187871,38.9024209 32.4150816,39.6560339 32.8773468,40.1233943 L35.6236104,42.8979125 C35.6495491,42.930336 35.6773406,42.961833 35.7074481,42.9914773 C36.4193738,43.7034029 36.4193738,44.8623086 35.7074481,45.5742342 C34.9955225,46.2866231 33.83708,46.2861598 33.1251544,45.5742342 C33.0431694,45.4922493 32.9468255,45.4292552 32.8551136,45.3588501 C32.7772974,45.2995615 32.756917,45.2583374 32.7958251,45.1638464 C32.8351964,45.0679657 32.8940217,44.9813488 32.933393,44.8850049 C32.9769331,44.7775445 33.0121357,44.6668416 33.0464118,44.5556756 C33.2289094,43.9674222 33.2826396,43.3347023 33.2006547,42.7242157 C33.0431694,41.5528038 32.3988698,40.4958004 31.4224617,39.8269516 C30.8948864,39.4661252 30.2843998,39.2294342 29.6516798,39.1405014 C29.9583128,37.7879817 29.5900754,36.3215168 28.6321949,35.309443 C27.8438426,34.4766242 26.778965,34.0092638 25.6334918,33.9935153 C25.5918046,33.9930521 25.5501173,33.9930521 25.507967,33.9935153 C25.5334424,32.9003828 25.136024,31.8141983 24.3824111,31.0179718 C23.5935956,30.1851532 22.5287179,29.7177928 21.3837081,29.7020442 C21.0432621,29.6974123 20.6995738,29.7335412 20.3679286,29.8099678 C20.226192,28.8238327 19.7291872,27.9113451 18.9765007,27.2587081 C18.2284461,26.611166 17.2877038,26.2517292 16.2858202,26.2378334 C15.2311327,26.2225481 14.1949729,26.6116292 13.4117157,27.3189229 L8.80990613,21.1181756 L19.8190464,7.70599676 L23.3277236,8.66572996 L18.7453681,16.7516674 C18.1913908,17.7294651 18.0515069,18.8642849 18.351192,19.947227 C18.6508769,21.0306324 19.354002,21.9320034 20.3317997,22.4859808 C20.392941,22.5207201 20.4545455,22.5536067 20.5170764,22.5851038 C20.5217082,22.5874197 20.5263402,22.5897357 20.5314353,22.5920517 C20.6958683,22.6740366 20.8649334,22.7444417 21.0363142,22.8037302 C21.8343936,23.0802557 22.6963933,23.1103631 23.5278224,22.88062 C24.6107645,22.5809351 25.5121357,21.8773468 26.0661129,20.9000124 L29.0439723,15.6451025 L34.3609499,16.0221406 L48.5193306,30.180058 C49.230793,30.8924469 49.230793,32.0508893 48.5188673,32.7628149 L48.5188673,32.7628149 Z M49.0121666,27.3059536 L35.7301445,14.0243947 C35.7051321,13.9989192 35.6787302,13.9748333 35.6514019,13.9521369 C35.4601038,13.792799 35.2229496,13.6964551 34.9728261,13.6788538 L28.4626667,13.2170517 C28.0124444,13.1860178 27.5650013,13.4254879 27.3426692,13.8178113 L23.9947196,19.7262846 C23.7543231,20.1505682 23.3629262,20.4558115 22.8927866,20.5859684 C22.4231101,20.7161252 21.9302742,20.6549839 21.5055274,20.4145875 C21.0812438,20.174191 20.7760006,19.7827939 20.6458436,19.3126544 C20.5156868,18.8425148 20.5763649,18.3496789 20.8172246,17.9253953 L25.2865613,10.0377038 L27.0976409,9.5166132 C27.1096838,9.51290767 27.1212636,9.50827569 27.1333066,9.50457016 L33.892663,7.5526804 L42.0596591,7.5526804 L52.2554348,20.5137105 L49.0121666,27.3059536 Z M53.8150013,18.6451951 L44.386271,6.65269889 L49.1983696,3.5923913 L58.0087389,15.0364687 L53.8150013,18.6451951 Z" id="Shape"></path>
        </g>
    </g>
</svg>