<svg width="64" height="64" viewBox="0 0 64 64" fill="none" xmlns="http://www.w3.org/2000/svg">
<circle cx="32" cy="32" r="32" fill="#A5BEE2"/>
<path d="M26 31C25.8022 31 25.6089 31.0587 25.4444 31.1685C25.28 31.2784 25.1518 31.4346 25.0761 31.6173C25.0004 31.8 24.9806 32.0011 25.0192 32.1951C25.0578 32.3891 25.153 32.5673 25.2929 32.7071C25.4327 32.847 25.6109 32.9422 25.8049 32.9808C25.9989 33.0194 26.2 32.9996 26.3827 32.9239C26.5654 32.8482 26.7216 32.72 26.8315 32.5556C26.9414 32.3911 27 32.1978 27 32C27 31.7348 26.8946 31.4804 26.7071 31.2929C26.5196 31.1054 26.2652 31 26 31ZM31.86 29.45L24.71 22.29C24.6168 22.1968 24.5061 22.1228 24.3842 22.0723C24.2624 22.0219 24.1319 21.9959 24 21.9959C23.8681 21.9959 23.7376 22.0219 23.6158 22.0723C23.4939 22.1228 23.3832 22.1968 23.29 22.29C23.1017 22.4783 22.9959 22.7337 22.9959 23C22.9959 23.2663 23.1017 23.5217 23.29 23.71L24.59 25H24C23.2044 25 22.4413 25.3161 21.8787 25.8787C21.3161 26.4413 21 27.2044 21 28V36C21 36.7957 21.3161 37.5587 21.8787 38.1213C22.4413 38.6839 23.2044 39 24 39H38.59L41.29 41.71C41.383 41.8037 41.4936 41.8781 41.6154 41.9289C41.7373 41.9797 41.868 42.0058 42 42.0058C42.132 42.0058 42.2627 41.9797 42.3846 41.9289C42.5064 41.8781 42.617 41.8037 42.71 41.71C42.8037 41.617 42.8781 41.5064 42.9289 41.3846C42.9797 41.2627 43.0058 41.132 43.0058 41C43.0058 40.868 42.9797 40.7373 42.9289 40.6154C42.8781 40.4936 42.8037 40.383 42.71 40.29L31.86 29.45ZM31.12 31.54L32.46 32.88C32.3185 32.9564 32.1608 32.9976 32 33C31.7348 33 31.4804 32.8946 31.2929 32.7071C31.1054 32.5196 31 32.2652 31 32C31.0024 31.8393 31.0436 31.6815 31.12 31.54ZM24 37C23.7348 37 23.4804 36.8946 23.2929 36.7071C23.1054 36.5196 23 36.2652 23 36V28C23 27.7348 23.1054 27.4804 23.2929 27.2929C23.4804 27.1054 23.7348 27 24 27H26.59L29.69 30.1C29.2471 30.6344 29.0033 31.3059 29 32C29 32.7957 29.3161 33.5587 29.8787 34.1213C30.4413 34.6839 31.2044 35 32 35C32.6941 34.9967 33.3656 34.7529 33.9 34.31L36.59 37H24ZM40 25H32.66C32.3948 25 32.1404 25.1054 31.9529 25.2929C31.7654 25.4804 31.66 25.7348 31.66 26C31.66 26.2652 31.7654 26.5196 31.9529 26.7071C32.1404 26.8946 32.3948 27 32.66 27H40C40.2652 27 40.5196 27.1054 40.7071 27.2929C40.8946 27.4804 41 27.7348 41 28V35.34C41 35.6052 41.1054 35.8596 41.2929 36.0471C41.4804 36.2346 41.7348 36.34 42 36.34C42.2652 36.34 42.5196 36.2346 42.7071 36.0471C42.8946 35.8596 43 35.6052 43 35.34V28C43 27.2044 42.6839 26.4413 42.1213 25.8787C41.5587 25.3161 40.7956 25 40 25ZM39 32C39 31.8022 38.9414 31.6089 38.8315 31.4444C38.7216 31.28 38.5654 31.1518 38.3827 31.0761C38.2 31.0004 37.9989 30.9806 37.8049 31.0192C37.6109 31.0578 37.4327 31.153 37.2929 31.2929C37.153 31.4327 37.0578 31.6109 37.0192 31.8049C36.9806 31.9989 37.0004 32.2 37.0761 32.3827C37.1518 32.5654 37.28 32.7216 37.4444 32.8315C37.6089 32.9414 37.8022 33 38 33C38.2652 33 38.5196 32.8946 38.7071 32.7071C38.8946 32.5196 39 32.2652 39 32Z" fill="white"/>
</svg>
