
<svg width="64" height="64" viewBox="0 0 64 64" fill="none" xmlns="http://www.w3.org/2000/svg">
<circle cx="32" cy="32" r="32" fill="#A5BEE2"/>
<path fill-rule="evenodd" clip-rule="evenodd" d="M32.8377 25C32.6174 25.4644 32.5 25.9762 32.5 26.5C32.5 26.6683 32.5121 26.8354 32.5359 27H24C23.7348 27 23.4804 27.1054 23.2929 27.2929C23.1054 27.4804 23 27.7348 23 28V36C23 36.2652 23.1054 36.5196 23.2929 36.7071C23.4804 36.8946 23.7348 37 24 37H40C40.2652 37 40.5196 36.8946 40.7071 36.7071C40.8946 36.5196 41 36.2652 41 36V32.5C41.3247 32.5003 41.6495 32.4554 41.9649 32.3652C42.3364 32.259 42.6858 32.0927 43 31.8744V36C43 36.7956 42.6839 37.5587 42.1213 38.1213C41.5587 38.6839 40.7956 39 40 39H24C23.2044 39 22.4413 38.6839 21.8787 38.1213C21.3161 37.5587 21 36.7956 21 36V28C21 27.2044 21.3161 26.4413 21.8787 25.8787C22.4413 25.3161 23.2044 25 24 25H32.8377ZM38.1374 31.0095C38.1987 31.0969 38.2641 31.1817 38.3336 31.2636C38.5272 31.4919 38.7482 31.6933 38.9907 31.8636C38.9968 31.9086 39 31.9541 39 32C39 32.1978 38.9414 32.3911 38.8315 32.5556C38.7216 32.72 38.5654 32.8482 38.3827 32.9239C38.2 32.9996 37.9989 33.0194 37.8049 32.9808C37.6109 32.9422 37.4327 32.847 37.2929 32.7071C37.153 32.5673 37.0578 32.3891 37.0192 32.1951C36.9806 32.0011 37.0004 31.8 37.0761 31.6173C37.1518 31.4346 37.28 31.2784 37.4444 31.1685C37.6089 31.0586 37.8022 31 38 31C38.0462 31 38.0921 31.0032 38.1374 31.0095ZM25.4444 31.1685C25.6089 31.0586 25.8022 31 26 31C26.2652 31 26.5196 31.1054 26.7071 31.2929C26.8946 31.4804 27 31.7348 27 32C27 32.1978 26.9414 32.3911 26.8315 32.5556C26.7216 32.72 26.5654 32.8482 26.3827 32.9239C26.2 32.9996 25.9989 33.0194 25.8049 32.9808C25.6109 32.9422 25.4327 32.847 25.2929 32.7071C25.153 32.5673 25.0578 32.3891 25.0192 32.1951C24.9806 32.0011 25.0004 31.8 25.0761 31.6173C25.1518 31.4346 25.28 31.2784 25.4444 31.1685ZM30.3333 29.5056C30.8266 29.1759 31.4067 29 32 29C32.7956 29 33.5587 29.3161 34.1213 29.8787C34.6839 30.4413 35 31.2044 35 32C35 32.5933 34.8241 33.1734 34.4944 33.6667C34.1648 34.1601 33.6962 34.5446 33.1481 34.7716C32.5999 34.9987 31.9967 35.0581 31.4147 34.9424C30.8328 34.8266 30.2982 34.5409 29.8787 34.1213C29.4591 33.7018 29.1734 33.1672 29.0576 32.5853C28.9419 32.0033 29.0013 31.4001 29.2284 30.8519C29.4554 30.3038 29.8399 29.8352 30.3333 29.5056ZM31.4444 32.8315C31.6089 32.9414 31.8022 33 32 33C32.2652 33 32.5196 32.8946 32.7071 32.7071C32.8946 32.5196 33 32.2652 33 32C33 31.8022 32.9414 31.6089 32.8315 31.4444C32.7216 31.28 32.5654 31.1518 32.3827 31.0761C32.2 31.0004 31.9989 30.9806 31.8049 31.0192C31.6109 31.0578 31.4327 31.153 31.2929 31.2929C31.153 31.4327 31.0578 31.6109 31.0192 31.8049C30.9806 31.9989 31.0004 32.2 31.0761 32.3827C31.1518 32.5654 31.28 32.7216 31.4444 32.8315Z" fill="white"/>
<path d="M41 27C40.5752 27.0014 40.1619 27.138 39.82 27.39L38.07 26.59L40 25.71C40.3019 25.8933 40.6469 25.9933 41 26C41.3956 26 41.7822 25.8827 42.1111 25.6629C42.44 25.4432 42.6964 25.1308 42.8478 24.7654C42.9991 24.3999 43.0387 23.9978 42.9616 23.6098C42.8844 23.2219 42.6939 22.8655 42.4142 22.5858C42.1345 22.3061 41.7781 22.1156 41.3902 22.0384C41.0022 21.9613 40.6001 22.0009 40.2346 22.1522C39.8692 22.3036 39.5568 22.56 39.3371 22.8889C39.1173 23.2178 39 23.6044 39 24L37.1 24.87C36.778 24.6407 36.3952 24.5119 36 24.5C35.4696 24.5 34.9609 24.7107 34.5858 25.0858C34.2107 25.4609 34 25.9696 34 26.5C34 27.0304 34.2107 27.5391 34.5858 27.9142C34.9609 28.2893 35.4696 28.5 36 28.5C36.3222 28.5002 36.639 28.4175 36.92 28.26L39.02 29.26C39.07 29.6413 39.2289 30.0002 39.4776 30.2935C39.7264 30.5868 40.0544 30.8022 40.4224 30.9139C40.7905 31.0255 41.1829 31.0287 41.5527 30.923C41.9224 30.8173 42.2539 30.6072 42.5074 30.318C42.7608 30.0287 42.9255 29.6725 42.9816 29.292C43.0377 28.9115 42.983 28.5229 42.8239 28.1728C42.6649 27.8226 42.4082 27.5257 42.0847 27.3177C41.7612 27.1097 41.3846 26.9994 41 27Z" fill="white"/>
</svg>
