
<svg width="64" height="64" viewBox="0 0 64 64" fill="none" xmlns="http://www.w3.org/2000/svg">
<circle cx="32" cy="32" r="32" fill="#E2A5D1"/>
<path d="M42 22H22C21.7348 22 21.4804 22.1054 21.2929 22.2929C21.1054 22.4804 21 22.7348 21 23V31C21 31.2652 21.1054 31.5196 21.2929 31.7071C21.4804 31.8946 21.7348 32 22 32H25V41C25 41.2652 25.1054 41.5196 25.2929 41.7071C25.4804 41.8946 25.7348 42 26 42H38C38.2652 42 38.5196 41.8946 38.7071 41.7071C38.8946 41.5196 39 41.2652 39 41V32H42C42.2652 32 42.5196 31.8946 42.7071 31.7071C42.8946 31.5196 43 31.2652 43 31V23C43 22.7348 42.8946 22.4804 42.7071 22.2929C42.5196 22.1054 42.2652 22 42 22ZM27 40V38C27.5304 38 28.0391 38.2107 28.4142 38.5858C28.7893 38.9609 29 39.4696 29 40H27ZM37 40H35C35 39.4696 35.2107 38.9609 35.5858 38.5858C35.9609 38.2107 36.4696 38 37 38V40ZM37 36C35.9391 36 34.9217 36.4214 34.1716 37.1716C33.4214 37.9217 33 38.9391 33 40H31C31 38.9391 30.5786 37.9217 29.8284 37.1716C29.0783 36.4214 28.0609 36 27 36V28H37V36ZM41 30H39V27C39 26.7348 38.8946 26.4804 38.7071 26.2929C38.5196 26.1054 38.2652 26 38 26H26C25.7348 26 25.4804 26.1054 25.2929 26.2929C25.1054 26.4804 25 26.7348 25 27V30H23V24H41V30ZM32 35C32.5933 35 33.1734 34.8241 33.6667 34.4944C34.1601 34.1648 34.5446 33.6962 34.7716 33.1481C34.9987 32.5999 35.0581 31.9967 34.9424 31.4147C34.8266 30.8328 34.5409 30.2982 34.1213 29.8787C33.7018 29.4591 33.1672 29.1734 32.5853 29.0576C32.0033 28.9419 31.4001 29.0013 30.8519 29.2284C30.3038 29.4554 29.8352 29.8399 29.5056 30.3333C29.1759 30.8266 29 31.4067 29 32C29 32.7956 29.3161 33.5587 29.8787 34.1213C30.4413 34.6839 31.2044 35 32 35ZM32 31C32.1978 31 32.3911 31.0586 32.5556 31.1685C32.72 31.2784 32.8482 31.4346 32.9239 31.6173C32.9996 31.8 33.0194 32.0011 32.9808 32.1951C32.9422 32.3891 32.847 32.5673 32.7071 32.7071C32.5673 32.847 32.3891 32.9422 32.1951 32.9808C32.0011 33.0194 31.8 32.9996 31.6173 32.9239C31.4346 32.8482 31.2784 32.72 31.1685 32.5556C31.0586 32.3911 31 32.1978 31 32C31 31.7348 31.1054 31.4804 31.2929 31.2929C31.4804 31.1054 31.7348 31 32 31Z" fill="white"/>
</svg>
